<?xml version="1.0" standalone="no"?>
<!DOCTYPE svg PUBLIC "-//W3C//DTD SVG 20010904//EN"
 "http://www.w3.org/TR/2001/REC-SVG-20010904/DTD/svg10.dtd">
<svg version="1.0" xmlns="http://www.w3.org/2000/svg"
 width="60.000000pt" height="60.000000pt" viewBox="0 0 400.000000 400.000000"
 preserveAspectRatio="xMidYMid meet">
<metadata>
Created by potrace 1.15, written by Peter Selinger 2001-2017
</metadata>
<g transform="translate(0.000000,400.000000) scale(0.100000,-0.100000)"
fill="#00A651" stroke="none">
<path d="M1805 3789 c-770 -94 -1391 -656 -1559 -1410 -159 -719 134 -1457
747 -1877 194 -133 420 -229 656 -279 116 -25 145 -27 356 -28 201 0 244 3
343 23 649 131 1166 584 1372 1201 153 457 122 935 -89 1366 -258 526 -741
887 -1326 991 -109 19 -390 26 -500 13z m490 -659 c237 -75 418 -234 525 -463
22 -47 40 -92 40 -101 0 -14 18 -16 140 -16 77 0 140 -4 140 -9 0 -16 -87
-126 -164 -206 -72 -74 -76 -81 -76 -124 0 -71 -27 -233 -50 -302 -60 -177
-169 -307 -322 -385 -68 -35 -207 -73 -315 -86 l-93 -11 0 -184 0 -183 188
-94 187 -95 -475 0 -475 0 113 57 c61 31 112 59 112 62 0 3 -32 14 -71 24
-107 27 -200 78 -256 140 -56 61 -73 107 -73 199 0 51 6 76 28 118 24 47 36
58 92 86 76 38 169 53 326 53 l104 0 0 93 0 92 -62 24 c-252 96 -548 284 -741
469 -84 82 -217 237 -217 254 0 4 396 8 881 8 l880 0 -7 23 c-23 75 -113 198
-190 262 -74 60 -144 99 -239 131 -67 23 -97 27 -180 27 -63 0 -115 -6 -140
-15 -35 -13 -41 -20 -47 -56 -10 -60 -40 -112 -96 -164 -86 -81 -180 -113
-256 -88 -62 20 -80 77 -50 163 25 74 88 134 210 203 121 68 168 88 264 109
93 21 273 13 365 -15z"/>
<path d="M2600 2034 c-93 -61 -318 -176 -417 -215 l-63 -24 0 -87 0 -87 38 5
c218 30 357 104 444 238 32 50 95 212 86 222 -2 1 -42 -22 -88 -52z"/>
<path d="M1644 1409 c-59 -14 -84 -41 -84 -92 0 -89 83 -185 223 -257 65 -34
66 -34 101 -17 l36 17 0 180 0 180 -117 -1 c-65 -1 -136 -5 -159 -10z"/>
</g>
</svg>
